<svg width="1412" height="531" viewBox="0 0 1412 531" fill="none" xmlns="http://www.w3.org/2000/svg">
<circle cx="1213.09" cy="8.39466" r="8" transform="rotate(-31.8419 1213.09 8.39466)" fill="#768A96"/>
<path d="M1409.83 154.6C1413.62 160.7 1411.74 168.715 1405.64 172.503C1399.55 176.29 1391.53 174.417 1387.74 168.317C1383.95 162.218 1385.83 154.203 1391.93 150.415C1398.03 146.628 1406.04 148.501 1409.83 154.6Z" fill="#768A96"/>
<rect x="1329.27" y="42.1879" width="49.4086" height="49.4086" rx="12" transform="rotate(2.41603 1329.27 42.1879)" fill="#AAC7D8"/>
<circle cx="199.927" cy="522.619" r="8" transform="rotate(148 199.927 522.619)" fill="#768A96"/>
<circle cx="13.8054" cy="370.068" r="13" transform="rotate(148 13.8054 370.068)" fill="#768A96"/>
<rect x="83.6465" y="489.146" width="49.4086" height="49.4086" rx="12" transform="rotate(-177.742 83.6465 489.146)" fill="#AAC7D8"/>
</svg>
