<svg width="34" height="34" viewBox="0 0 34 34" fill="none" xmlns="http://www.w3.org/2000/svg">
<path fill-rule="evenodd" clip-rule="evenodd" d="M15.3098 8.44375C15.5574 8.28901 15.6812 8.21164 15.8222 8.17291C16.44 8.00308 17.0562 8.45041 17.0861 9.09047C17.0929 9.23647 17.0199 9.53046 16.8738 10.1184C16.3692 12.1489 16.6568 14.3736 17.853 16.288C19.0493 18.2024 20.9227 19.4361 22.9689 19.8727C23.5614 19.9991 23.8577 20.0623 23.9859 20.1325C24.5481 20.4399 24.68 21.1899 24.2565 21.6707C24.1599 21.7804 24.0361 21.8578 23.7885 22.0125C20.0416 24.3539 15.1061 23.2144 12.7647 19.4675C10.4234 15.7206 11.5629 10.7851 15.3098 8.44375Z" fill="#202224"/>
</svg>
